<svg width="20" height="20" viewBox="0 0 20 20" fill="none" xmlns="http://www.w3.org/2000/svg">
<path d="M10.9209 16.4134L7.02287 16.3406C5.76076 16.3152 4.49552 16.3659 3.25816 16.1029C1.37585 15.7099 1.2425 13.7831 1.10296 12.1669C0.910694 9.89476 0.985127 7.58135 1.34796 5.32815C1.55279 4.06387 2.35888 3.30946 3.60547 3.22737C7.81364 2.92943 12.0498 2.96474 16.2486 3.10374C16.6921 3.11648 17.1386 3.18612 17.5758 3.2654C19.7343 3.65204 19.7869 5.8355 19.9268 7.67356C20.0664 9.53059 20.0074 11.3972 19.7407 13.2415C19.5268 14.7686 19.1174 16.0493 17.3898 16.1729C15.2251 16.3346 13.1102 16.4647 10.9395 16.4233C10.9396 16.4134 10.9271 16.4134 10.9209 16.4134ZM8.62925 12.5472C10.2605 11.5901 11.8606 10.649 13.4825 9.69828C11.8482 8.74117 10.2511 7.80001 8.62925 6.84932V12.5472Z" fill="white"/>
</svg>
